<svg width="1024" height="1024" viewBox="0 0 1024 1024" fill="none" xmlns="http://www.w3.org/2000/svg">
<rect width="1024" height="1024" fill="white"/>
<path d="M593.406 243.064C588.643 247.604 583.843 252.113 579.099 256.668C559.754 275.185 540.829 293.968 526.083 315.528C518.199 327.056 513.874 339.131 513.965 352.828C514.403 417.055 514.147 481.266 514.147 545.492L514.038 655.334C514.202 716.035 513.892 776.752 514.366 837.452C514.458 850.37 517.049 863.287 518.801 876.172C519.239 879.324 520.9 882.35 522.086 885.704H389.957C389.957 827.453 388.57 768.686 388.57 710.403L389.903 603.26C389.83 511.343 390.049 419.442 389.629 327.524C389.556 312.33 396.947 302.065 411.492 294.592C425.252 287.494 440.29 282.986 455.511 278.883C499.493 267.042 543.548 255.326 587.566 243.579C589.282 243.111 591.052 242.815 593.406 243.064Z" fill="#180850"/>
<g filter="url(#filter0_d_2289_33086)">
<mask id="mask0_2289_33086" style="mask-type:luminance" maskUnits="userSpaceOnUse" x="148" y="139" width="729" height="694">
<path d="M531.536 554.771C534.885 553.449 537.723 552.414 540.479 551.235C584.542 532.294 626.277 510.724 663.376 484.056C694.637 461.595 721.732 436.552 739.577 406.125C767.816 357.92 762.058 311.562 726.244 267.053C711.543 248.764 693.31 233.36 668.011 223.674C644.285 214.578 619.069 212.204 593.077 213.319C554.261 214.992 517.121 223.228 479.776 230.747C441.471 238.457 403.248 246.646 364.535 252.906C315.042 260.887 265.241 261.429 216.054 250.342C194.002 245.371 173.319 238.155 155.534 226.494C153.227 224.98 151.042 223.324 148 221.173C171.134 223.674 192.675 221.3 214.094 218.799C296.686 209.13 375.745 189.599 453.538 166.452C512.139 149.008 572.617 138.478 635.669 139.02C681.12 139.418 724.876 145.95 765.12 163.409C813.144 184.246 843.833 216.091 860.964 256.236C882.893 307.611 880.381 358.843 857.799 409.677C839.218 451.479 809.387 488.023 772.001 521.095C737.862 551.299 696.209 573.888 651.677 593.291C614.169 609.636 575.66 624.578 537.478 639.935L391.038 703.561C344.832 741.348 308.977 784.567 280.433 832.693C280.433 824.616 279.738 817.225 280.535 809.929C286.844 752.77 308.977 699.738 349.467 651.628C360.615 638.374 373.703 626.347 388.568 615.53L531.536 554.756V554.771Z" fill="white"/>
</mask>
<g mask="url(#mask0_2289_33086)">
<g filter="url(#filter1_i_2289_33086)">
<path d="M561.367 192.531C547.258 190.89 532.904 192.499 518.836 194.347C424.32 206.741 332.05 229.521 245.62 261.828C221.934 270.669 193.104 280.116 171.052 269.029C161.109 264.027 154.84 255.711 148.939 247.698C143.243 239.94 137.321 231.258 139.772 222.512C141.711 215.614 148.531 210.23 155.575 205.785C181.956 189.09 214.747 179.946 247.376 172.602C275.757 166.214 304.526 160.957 333.275 155.7C361.35 150.57 389.446 145.441 417.521 140.311C450.129 134.353 482.777 128.395 515.794 124.062C558.039 118.534 600.795 115.683 643.55 113.755C647.124 113.596 650.942 113.484 653.943 114.998C657.312 116.67 658.721 119.888 660.13 122.804C673.871 151.176 706.786 170.738 729.817 195.175C739.986 205.96 748.439 218.131 750.787 231.385C753.135 244.639 782.139 332.246 769.602 341.374C737.546 364.712 676.22 261.414 656.496 243.827C632.627 222.56 598.61 196.88 561.326 192.547L561.367 192.531Z" fill="url(#paint0_linear_2289_33086)"/>
</g>
<g filter="url(#filter2_i_2289_33086)">
<path d="M589.171 515.955C602.463 510.905 605.989 502.774 617.015 495.08C625.04 489.488 639.306 476.097 644.86 468.897C669.464 437.068 715.247 414.67 736.053 381.232C742.71 370.527 749.203 359.662 752.633 348.065C758.248 329.044 755.308 309.115 750.326 289.998C736.544 236.982 704.681 172.802 662.681 129.758C691.43 127.799 745.978 133.801 772.072 143.407C803.475 154.972 840.881 158.196 869.078 174.015C913.774 199.074 919.348 260.623 935.192 301.739C951.037 342.855 945.728 389.436 916.632 425.885C903.769 442.006 886.74 455.834 869.078 468.897C793.653 524.653 705.018 568.143 617.015 611.251C596.924 621.096 583.672 626.895 559.252 626.178C547.9 625.843 530.319 617.352 542.346 608.527C532.892 607.252 523.091 608.845 513.434 608.001C520.192 569.211 539.161 536.071 582.488 519.583L589.171 515.955Z" fill="url(#paint1_linear_2289_33086)"/>
</g>
<path d="M737.346 382.036L737.346 382.036C743.994 371.344 750.596 360.317 754.093 348.496L754.093 348.496C759.828 329.067 756.8 308.805 751.799 289.615C738.217 237.369 707.154 174.318 666.078 131.092C680.118 130.463 699.273 131.489 718.191 133.757C738.647 136.209 758.667 140.094 771.546 144.835C784.129 149.47 797.682 152.777 811.128 156.058C814.567 156.897 817.999 157.735 821.406 158.592C838.198 162.819 854.426 167.541 868.334 175.343L868.334 175.343C890.216 187.612 902.616 208.857 911.531 232.395C915.986 244.158 919.549 256.431 923.001 268.382L923.191 269.041C926.568 280.736 929.856 292.124 933.772 302.286C949.434 342.929 944.181 388.934 915.443 424.935L915.442 424.935C902.709 440.893 885.816 454.624 868.173 467.673C792.879 523.333 704.373 566.764 616.346 609.884L617.015 611.251L616.345 609.884C596.324 619.695 583.343 625.362 559.297 624.656C553.874 624.496 546.964 622.365 542.951 619.323C540.932 617.793 539.928 616.251 539.836 614.861C539.75 613.558 540.444 611.811 543.246 609.754L546.287 607.522L542.549 607.018C537.685 606.363 532.758 606.448 527.924 606.581C527.54 606.592 527.156 606.603 526.773 606.613C522.871 606.724 519.034 606.833 515.23 606.607C522.17 568.912 540.949 537.019 583.03 521.006L583.125 520.969L583.214 520.921L589.808 517.341C596.645 514.728 600.991 511.311 604.976 507.627C605.955 506.722 606.902 505.812 607.853 504.897C610.808 502.056 613.802 499.178 617.886 496.328C626.026 490.656 640.407 477.162 646.065 469.828C657.253 455.354 672.888 442.832 688.694 430.174C690.074 429.069 691.455 427.963 692.834 426.854C709.931 413.117 726.785 399.008 737.346 382.036Z" stroke="#FF6BEC" stroke-width="3.0443"/>
<g filter="url(#filter3_i_2289_33086)">
<path d="M351.1 565.255C380.444 544.242 419.947 534.06 459.103 528.362C498.258 522.68 538.291 520.903 577.072 513.841C642.18 501.976 795.282 454.596 882.157 372.176C908.317 360.46 900.771 339.708 922.253 323.169C938.785 310.451 917.152 323.188 928.936 307.576C958.897 267.938 926.765 283.145 939.801 238.272C961.161 295.118 975.245 356.92 950.405 412.914C932.944 452.276 897.335 485.53 856.062 511.951C814.789 538.372 767.722 558.639 720.958 578.749C710.728 583.143 700.456 587.55 689.459 590.602C671.534 595.549 652.293 596.677 633.356 598.031C576.959 602.054 528.229 637.908 473.337 648.781C439.444 655.503 342.994 704.107 308.496 691.106C273.052 677.743 330.495 579.993 351.102 565.239L351.1 565.255Z" fill="url(#paint2_linear_2289_33086)"/>
</g>
<path d="M930.144 308.457C937.659 298.515 941.418 291.841 942.906 286.703C944.437 281.417 943.539 277.845 942.141 274.288C941.873 273.607 941.591 272.934 941.306 272.252C940.123 269.424 938.88 266.454 938.332 262.208C937.754 257.738 937.956 251.813 940.021 243.3C960.409 298.844 972.946 358.395 949.011 412.347C931.731 451.304 896.417 484.344 855.271 510.685C814.128 537.022 767.185 557.24 720.397 577.36C710.153 581.76 699.978 586.123 689.101 589.142C672.402 593.75 654.528 595.015 636.651 596.28C635.536 596.359 634.42 596.438 633.305 596.517C604.83 598.549 578.338 608.613 552.241 619.44C549.115 620.737 545.996 622.044 542.88 623.35C519.906 632.978 497.092 642.54 473.094 647.294L473.094 647.294C464.476 649.003 451.972 653.349 437.65 658.639C433.364 660.222 428.909 661.892 424.334 663.606C413.566 667.642 402.138 671.925 390.689 675.91C374.379 681.585 358.113 686.623 343.8 689.435C329.42 692.259 317.291 692.777 309.085 689.684C301.122 686.682 298.12 678.933 298.826 667.915C299.532 656.912 303.946 643.179 310.171 629.265C316.384 615.38 324.342 601.441 332.025 590.062C339.456 579.057 346.509 570.627 351.393 566.881L928.936 307.576M930.144 308.457L928.936 307.576M930.144 308.457C930.144 308.457 930.145 308.457 930.145 308.456L928.936 307.576M930.144 308.457C928.703 310.366 927.82 311.782 927.314 312.823C926.796 313.891 926.748 314.418 926.766 314.612C926.769 314.649 926.769 314.664 926.775 314.675C926.782 314.685 926.795 314.69 926.825 314.708C926.977 314.799 927.239 314.876 927.719 314.967C927.761 314.975 927.806 314.984 927.855 314.993C928.033 315.026 928.248 315.066 928.436 315.111C928.666 315.165 929.017 315.259 929.341 315.45C929.697 315.659 930.152 316.069 930.264 316.767C930.364 317.393 930.131 317.932 929.934 318.275C929.549 318.947 928.805 319.708 927.796 320.603C926.74 321.539 925.235 322.758 923.159 324.356M928.936 307.576C922.868 315.615 925.661 316.137 927.541 316.489C929.312 316.82 930.273 317 922.253 323.169M923.159 324.356C923.159 324.355 923.159 324.355 923.159 324.355L922.253 323.169M923.159 324.356C913.822 331.544 910.186 339.495 906.556 347.435C906.153 348.316 905.751 349.196 905.34 350.075C903.292 354.464 901.038 358.837 897.583 362.861C894.155 366.853 889.596 370.445 882.991 373.442M923.159 324.356L922.253 323.169M922.253 323.169L882.991 373.442M882.991 373.442C883.057 373.379 883.123 373.316 883.189 373.254L882.157 372.176L882.739 373.555C882.823 373.517 882.907 373.48 882.991 373.442ZM882.991 373.442C839.364 414.757 779.26 447.236 721.991 470.865C664.62 494.535 609.961 509.379 577.291 515.333L577.072 513.841L577.291 515.333C557.836 518.876 538.08 521.091 518.327 523.128C515.344 523.436 512.362 523.74 509.38 524.043C492.601 525.752 475.856 527.456 459.268 529.863M882.991 373.442L459.268 529.863M459.268 529.863L459.103 528.362L459.267 529.863C459.267 529.863 459.267 529.863 459.268 529.863ZM351.114 565.255L352.62 565.347L352.621 565.331L352.745 564.096C352.2 564.473 351.659 564.855 351.121 565.24C351.117 565.243 351.113 565.246 351.109 565.249L351.114 565.255ZM939.097 240.8C939.316 239.979 939.55 239.137 939.801 238.272C940.101 239.071 940.4 239.87 940.697 240.671L939.097 240.8Z" stroke="#CA92FF" stroke-width="3.0443"/>
<g filter="url(#filter4_i_2289_33086)">
<path d="M424.932 619.588C584.715 581.952 595.853 608.683 767.375 539.628C804.19 530.946 772.965 530.638 807.472 517.352C859.518 497.328 766.264 517.793 818.31 497.768C837.952 490.217 858.493 482.045 870.621 467.819C860.514 550.371 848.345 637.319 785.947 704.449C769.715 721.925 750.338 737.632 728.592 750.966C705.928 764.858 680.855 776.136 655.699 787.096C578.906 820.582 499.01 852.188 412.457 864.438C367.598 870.795 315.062 869.839 284.435 843.49C241.679 806.707 263.404 752.734 290.111 713.912C319.227 671.585 367.149 636.761 424.932 619.572V619.588Z" fill="url(#paint3_linear_2289_33086)"/>
</g>
<path d="M291.365 714.775C320.218 672.83 367.724 638.248 425.07 621.12L425.281 621.07C485.207 606.955 524.151 601.911 558.586 597.452C570.012 595.972 580.942 594.556 591.978 592.895C636.291 586.224 682.051 575.614 767.837 541.083C776.973 538.925 782.062 537.25 785.024 535.702C786.535 534.912 787.564 534.12 788.301 533.254C789.043 532.381 789.412 531.52 789.706 530.773C789.745 530.672 789.783 530.575 789.82 530.479C790.062 529.856 790.265 529.333 790.625 528.746C791.027 528.09 791.653 527.32 792.786 526.398C795.095 524.521 799.431 522.079 808.019 518.773C814.535 516.266 818.852 514.365 821.48 512.916C822.778 512.201 823.769 511.54 824.409 510.908C824.948 510.375 825.81 509.26 825.162 507.975C824.893 507.441 824.451 507.119 824.099 506.927C823.736 506.729 823.33 506.594 822.938 506.495C822.154 506.296 821.182 506.184 820.149 506.117C818.083 505.983 815.462 506.011 812.921 506.038L812.875 506.038C810.279 506.066 807.769 506.092 805.831 505.966C805.207 505.925 804.674 505.871 804.237 505.803C804.613 505.542 805.115 505.232 805.771 504.871C808.208 503.528 812.362 501.688 818.857 499.189C836.795 492.293 855.91 484.744 868.539 472.286C858.524 553.476 845.686 637.944 784.832 703.413L784.832 703.414C768.7 720.781 749.433 736.402 727.797 749.668C705.233 763.498 680.249 774.74 655.091 785.701L655.091 785.701C578.315 819.179 498.578 850.712 412.244 862.931L412.243 862.931C389.894 866.098 365.687 867.434 343.292 864.718C320.884 861.999 300.426 855.24 285.427 842.336C264.512 824.342 259.368 802.209 262.73 779.69C266.105 757.079 278.067 734.106 291.365 714.775L290.111 713.912L291.365 714.775ZM803.349 506.565C803.348 506.566 803.354 506.555 803.372 506.531C803.36 506.553 803.351 506.564 803.349 506.565Z" stroke="#7CEEFF" stroke-width="3.0443"/>
<path d="M639.212 262.21C588.693 266.845 538.726 276.807 489.001 286.722C472.573 289.997 456.172 293.268 439.786 296.339C373.74 308.717 307.857 317.882 241.038 311.324L241.037 311.324C234.959 310.732 228.459 309.672 223.029 307.669C217.562 305.653 213.477 302.792 211.763 298.794L211.761 298.79C210.27 295.342 210.861 291.462 211.993 287.41L211.994 287.408C212.875 284.238 213.268 280.986 213.523 277.794C213.629 276.459 213.71 275.165 213.79 273.888C213.906 272.037 214.019 270.223 214.204 268.38C214.798 262.484 216.077 257.124 220.156 252.624C227.881 252.557 231.298 251.323 235.906 249.66C237.498 249.085 239.233 248.458 241.337 247.811C243.179 247.246 245.776 246.367 248.717 245.37C251.548 244.412 254.698 243.345 257.802 242.346C264.278 240.262 270.601 238.455 274.272 238.161C303.865 235.812 331.45 226.109 358.431 216.618C360.578 215.863 362.721 215.109 364.861 214.36L364.861 214.36C416.51 196.274 470.984 180.189 527.306 181.31V181.31C565.264 182.07 601.241 192.089 631.131 210.164C637.265 213.874 644.513 217.663 651.982 221.568C657.231 224.312 662.59 227.114 667.747 229.985C679.697 236.637 690.704 243.726 697.731 251.652C690.104 255.68 680.679 257.889 670.745 259.281C663.497 260.297 656.097 260.865 648.994 261.411C645.652 261.667 642.375 261.919 639.212 262.21ZM639.212 262.21L639.351 263.726M639.212 262.21C639.212 262.21 639.212 262.21 639.211 262.21L639.351 263.726M639.351 263.726C642.468 263.439 645.719 263.189 649.048 262.934C666.063 261.626 685.118 260.162 698.746 252.836L240.889 246.356C238.683 247.035 236.901 247.678 235.291 248.259C230.629 249.942 227.409 251.104 219.492 251.104C213.289 257.547 212.781 265.644 212.267 273.848C211.989 278.282 211.709 282.747 210.527 287C209.384 291.094 208.649 295.427 210.364 299.394C214.284 308.538 228.638 311.644 240.889 312.839C324.598 321.054 406.771 304.67 489.36 288.203C539.064 278.293 588.919 268.352 639.351 263.726Z" fill="url(#paint4_linear_2289_33086)" stroke="#FF5EB3" stroke-width="3.0443"/>
</g>
</g>
<defs>
<filter id="filter0_d_2289_33086" x="94.182" y="106.492" width="817.511" height="783.063" filterUnits="userSpaceOnUse" color-interpolation-filters="sRGB">
<feFlood flood-opacity="0" result="BackgroundImageFix"/>
<feColorMatrix in="SourceAlpha" type="matrix" values="0 0 0 0 0 0 0 0 0 0 0 0 0 0 0 0 0 0 127 0" result="hardAlpha"/>
<feOffset dx="-9.1329" dy="12.1772"/>
<feGaussianBlur stdDeviation="22.3425"/>
<feComposite in2="hardAlpha" operator="out"/>
<feColorMatrix type="matrix" values="0 0 0 0 0.255615 0 0 0 0 0.255615 0 0 0 0 0.255615 0 0 0 0.36 0"/>
<feBlend mode="normal" in2="BackgroundImageFix" result="effect1_dropShadow_2289_33086"/>
<feBlend mode="normal" in="SourceGraphic" in2="effect1_dropShadow_2289_33086" result="shape"/>
</filter>
<filter id="filter1_i_2289_33086" x="139.203" y="89.3126" width="633.531" height="255.476" filterUnits="userSpaceOnUse" color-interpolation-filters="sRGB">
<feFlood flood-opacity="0" result="BackgroundImageFix"/>
<feBlend mode="normal" in="SourceGraphic" in2="BackgroundImageFix" result="shape"/>
<feColorMatrix in="SourceAlpha" type="matrix" values="0 0 0 0 0 0 0 0 0 0 0 0 0 0 0 0 0 0 127 0" result="hardAlpha"/>
<feOffset dy="-24.3544"/>
<feGaussianBlur stdDeviation="24.3544"/>
<feComposite in2="hardAlpha" operator="arithmetic" k2="-1" k3="1"/>
<feColorMatrix type="matrix" values="0 0 0 0 1 0 0 0 0 1 0 0 0 0 1 0 0 0 0.25 0"/>
<feBlend mode="normal" in2="shape" result="effect1_innerShadow_2289_33086"/>
</filter>
<filter id="filter2_i_2289_33086" x="513.434" y="126.343" width="442.705" height="499.894" filterUnits="userSpaceOnUse" color-interpolation-filters="sRGB">
<feFlood flood-opacity="0" result="BackgroundImageFix"/>
<feBlend mode="normal" in="SourceGraphic" in2="BackgroundImageFix" result="shape"/>
<feColorMatrix in="SourceAlpha" type="matrix" values="0 0 0 0 0 0 0 0 0 0 0 0 0 0 0 0 0 0 127 0" result="hardAlpha"/>
<feOffset dx="12.1772" dy="-3.0443"/>
<feGaussianBlur stdDeviation="21.3101"/>
<feComposite in2="hardAlpha" operator="arithmetic" k2="-1" k3="1"/>
<feColorMatrix type="matrix" values="0 0 0 0 1 0 0 0 0 1 0 0 0 0 1 0 0 0 0.35 0"/>
<feBlend mode="normal" in2="shape" result="effect1_innerShadow_2289_33086"/>
</filter>
<filter id="filter3_i_2289_33086" x="297.199" y="235.228" width="678.576" height="458.077" filterUnits="userSpaceOnUse" color-interpolation-filters="sRGB">
<feFlood flood-opacity="0" result="BackgroundImageFix"/>
<feBlend mode="normal" in="SourceGraphic" in2="BackgroundImageFix" result="shape"/>
<feColorMatrix in="SourceAlpha" type="matrix" values="0 0 0 0 0 0 0 0 0 0 0 0 0 0 0 0 0 0 127 0" result="hardAlpha"/>
<feOffset dx="12.1772" dy="-3.0443"/>
<feGaussianBlur stdDeviation="21.3101"/>
<feComposite in2="hardAlpha" operator="arithmetic" k2="-1" k3="1"/>
<feColorMatrix type="matrix" values="0 0 0 0 1 0 0 0 0 1 0 0 0 0 1 0 0 0 0.35 0"/>
<feBlend mode="normal" in2="shape" result="effect1_innerShadow_2289_33086"/>
</filter>
<filter id="filter4_i_2289_33086" x="260.262" y="467.819" width="610.359" height="421.194" filterUnits="userSpaceOnUse" color-interpolation-filters="sRGB">
<feFlood flood-opacity="0" result="BackgroundImageFix"/>
<feBlend mode="normal" in="SourceGraphic" in2="BackgroundImageFix" result="shape"/>
<feColorMatrix in="SourceAlpha" type="matrix" values="0 0 0 0 0 0 0 0 0 0 0 0 0 0 0 0 0 0 127 0" result="hardAlpha"/>
<feOffset dy="21.3101"/>
<feGaussianBlur stdDeviation="33.4873"/>
<feComposite in2="hardAlpha" operator="arithmetic" k2="-1" k3="1"/>
<feColorMatrix type="matrix" values="0 0 0 0 1 0 0 0 0 1 0 0 0 0 1 0 0 0 0.41 0"/>
<feBlend mode="normal" in2="shape" result="effect1_innerShadow_2289_33086"/>
</filter>
<linearGradient id="paint0_linear_2289_33086" x1="751.381" y1="195.221" x2="139.203" y2="195.221" gradientUnits="userSpaceOnUse">
<stop stop-color="#CA58AD"/>
<stop offset="1" stop-color="#E86278"/>
</linearGradient>
<linearGradient id="paint1_linear_2289_33086" x1="758.894" y1="143.154" x2="721.995" y2="628.026" gradientUnits="userSpaceOnUse">
<stop stop-color="#C847A9"/>
<stop offset="1" stop-color="#8C4CC2"/>
</linearGradient>
<linearGradient id="paint2_linear_2289_33086" x1="960.844" y1="321.967" x2="397.284" y2="698.553" gradientUnits="userSpaceOnUse">
<stop stop-color="#A953C7"/>
<stop offset="1" stop-color="#789CD7"/>
</linearGradient>
<linearGradient id="paint3_linear_2289_33086" x1="870.621" y1="547.517" x2="330.777" y2="896.946" gradientUnits="userSpaceOnUse">
<stop stop-color="#838CD9"/>
<stop offset="1" stop-color="#66CBE8"/>
</linearGradient>
<linearGradient id="paint4_linear_2289_33086" x1="454.721" y1="179.732" x2="410.476" y2="336.543" gradientUnits="userSpaceOnUse">
<stop stop-color="#DC4B99"/>
<stop offset="1" stop-color="#F07473"/>
</linearGradient>
</defs>
</svg>
