<svg width="1024" height="1024" viewBox="0 0 1024 1024" fill="none" xmlns="http://www.w3.org/2000/svg">
<rect width="1024" height="1024" fill="#1D1E1E"/>
<path d="M83.1897 440.349V526H66.5333V440.349H36.8103V426.923H113.631L111.908 440.349H83.1897ZM144.266 493.262C144.745 501.063 146.923 506.711 150.799 510.205C154.724 513.699 159.439 515.446 164.943 515.446C168.629 515.446 172.051 514.872 175.21 513.723C178.417 512.574 181.623 510.947 184.83 508.841L191.794 518.462C188.252 521.333 184.112 523.631 179.374 525.354C174.635 527.077 169.562 527.938 164.153 527.938C156.256 527.938 149.579 526.263 144.123 522.913C138.714 519.562 134.598 514.896 131.774 508.913C128.998 502.93 127.61 496.014 127.61 488.164C127.61 480.554 128.998 473.757 131.774 467.774C134.55 461.744 138.523 456.981 143.692 453.487C148.861 449.945 155.035 448.174 162.215 448.174C172.266 448.174 180.211 451.549 186.051 458.297C191.938 465.046 194.882 474.308 194.882 486.082C194.882 487.374 194.834 488.667 194.738 489.959C194.69 491.203 194.618 492.304 194.523 493.262H144.266ZM162.358 460.092C157.333 460.092 153.169 461.887 149.866 465.477C146.564 469.067 144.673 474.667 144.194 482.277H179.302C179.158 475.145 177.627 469.665 174.707 465.836C171.835 462.007 167.719 460.092 162.358 460.092ZM217.763 526V514.513H228.891V461.6H217.763V450.185H241.168L244.112 467.774C246.936 461.409 250.43 456.574 254.594 453.272C258.806 449.921 264.214 448.246 270.819 448.246C273.069 448.246 275.079 448.438 276.85 448.821C278.669 449.156 280.464 449.61 282.235 450.185L279.507 478.113H268.019V462.677C262.659 462.868 258.04 465.022 254.163 469.138C250.286 473.207 247.223 478.95 244.973 486.369V514.513H260.266V526H217.763ZM355.445 448.174C358.316 448.174 360.901 448.797 363.198 450.041C365.496 451.285 367.291 453.487 368.583 456.646C369.923 459.757 370.593 464.089 370.593 469.641V526H356.306V471.867C356.306 467.894 356.019 465.046 355.445 463.323C354.918 461.6 353.506 460.738 351.209 460.738C349.39 460.738 347.523 461.313 345.609 462.462C343.742 463.562 341.875 465.477 340.009 468.205V526H327.014V471.867C327.014 467.894 326.727 465.046 326.152 463.323C325.626 461.6 324.214 460.738 321.916 460.738C320.05 460.738 318.183 461.313 316.316 462.462C314.45 463.562 312.583 465.477 310.716 468.205V526H296.357V450.185H308.491L309.568 458.369C311.722 455.354 314.043 452.913 316.532 451.046C319.069 449.132 322.156 448.174 325.793 448.174C328.665 448.174 331.274 448.892 333.619 450.328C335.964 451.716 337.687 454.229 338.788 457.867C340.942 454.995 343.335 452.674 345.968 450.903C348.6 449.084 351.759 448.174 355.445 448.174ZM389.311 526V450.185H403.167L404.388 460.021C407.547 456.191 411.28 453.272 415.588 451.262C419.895 449.203 424.323 448.174 428.87 448.174C435.953 448.174 441.242 450.161 444.736 454.133C448.278 458.106 450.049 463.634 450.049 470.718V526H433.967V478.687C433.967 472.13 433.297 467.463 431.957 464.687C430.665 461.863 427.721 460.451 423.126 460.451C419.441 460.451 416.066 461.6 413.003 463.897C409.988 466.147 407.451 468.708 405.393 471.579V526H389.311ZM505.669 413.067C508.828 413.067 511.365 414.024 513.279 415.938C515.242 417.853 516.223 420.246 516.223 423.118C516.223 425.99 515.242 428.407 513.279 430.369C511.365 432.332 508.828 433.313 505.669 433.313C502.606 433.313 500.093 432.332 498.131 430.369C496.168 428.407 495.187 425.99 495.187 423.118C495.187 420.246 496.168 417.853 498.131 415.938C500.093 414.024 502.606 413.067 505.669 413.067ZM516.869 450.185V514.226H537.474V526H478.1V514.226H500.787V461.959H478.818V450.185H516.869ZM567.894 439.703L623.392 474.021V487.877L568.325 522.195L560.428 510.851L609.607 480.985L560.428 451.549L567.894 439.703Z" fill="#D9D9D9"/>
<rect x="650" y="503" width="150" height="15" fill="#D9D9D9"/>
<path d="M0 0H1024V191.975H0V0Z" fill="#302B33"/>
<circle cx="150" cy="98" r="50" fill="#FF5F57"/>
<circle cx="339" cy="98" r="50" fill="#FEBB2E"/>
<circle cx="528" cy="98" r="50" fill="#2BC840"/>
</svg>
